<svg xmlns="http://www.w3.org/2000/svg" width="256" height="256"><path fill-opacity=".016" d="M0 128.004v128.004l128.25-.254 128.25-.254.254-127.75L257.008 0H0v128.004m.485.496c0 70.4.119 99.053.265 63.672.146-35.38.146-92.98 0-128C.604 29.153.485 58.1.485 128.5" fill="#1976D2" fill-rule="evenodd"/><path fill-opacity=".227" d="M125.2 40.2c-.813.813-1.2 5.485-1.2 14.481 0 12.98-.051 13.291-2.25 13.707-17.335 3.287-25.503 7.303-35.76 17.584-10.06 10.085-15.046 19.871-17.448 34.25l-.622 3.722-13.603.278c-11.679.239-13.758.525-14.705 2.028-.802 1.275-.802 2.225 0 3.5.947 1.503 3.026 1.789 14.705 2.028l13.603.278.593 3.722c2.785 17.461 12.616 32.859 26.936 42.189 6.96 4.535 19.454 9.033 25.089 9.033H124v13.066c0 13.461.787 16.934 3.835 16.934 3.636 0 4.165-1.999 4.165-15.731 0-9.818.329-13.421 1.25-13.67.688-.186 3.95-.839 7.25-1.45 22.017-4.081 42.341-24.927 45.816-46.992l1.118-7.105 13.926-.276c11.988-.238 14.079-.519 15.028-2.026.803-1.275.803-2.225 0-3.5-.949-1.507-3.04-1.788-15.028-2.026l-13.926-.276-1.118-7.105c-3.492-22.175-23.689-42.891-45.816-46.992-3.3-.611-6.562-1.264-7.25-1.45-.924-.25-1.25-3.97-1.25-14.263 0-11.774-.244-14.018-1.582-14.531-2.374-.911-3.886-.739-5.218.593m-6.925 61.454c-6.627 2.346-13.783 9.424-16.318 16.138-2.554 6.763-2.332 16.594.501 22.216 2.93 5.815 9.508 11.836 15.297 14.002 11.007 4.118 21.554 1.812 29.904-6.538 11.221-11.222 11.182-27.762-.094-39.037-7.896-7.897-18.928-10.45-29.29-6.781" fill="#1976D2" fill-rule="evenodd"/><path fill-opacity=".113" d="M126.153 40.316c-.635.765-1.21 6.927-1.373 14.728l-.28 13.412-5 .807c-26.082 4.207-47.289 25.275-50.203 49.874l-.569 4.808-13.507.278c-11.588.238-13.663.526-14.609 2.027-.802 1.275-.802 2.225 0 3.5.947 1.503 3.028 1.789 14.745 2.028l13.643.278v2.921c0 5.011 4.805 18.413 8.821 24.601 5.296 8.161 15.365 17.256 23.582 21.3 3.775 1.858 10.616 4.108 15.202 5l8.338 1.622.279 14c.276 13.904.294 14.002 2.665 14.337 1.313.186 2.768-.264 3.235-1 .466-.735.854-7.251.863-14.48l.015-13.143 5.75-1.02c17.957-3.185 33.86-14.604 42.245-30.335 1.737-3.26 4.175-10.074 5.418-15.143l2.259-9.216 14.067-.277c14.579-.287 16.134-.786 14.633-4.696-.454-1.183-3.357-1.528-14.719-1.75L187.5 124.5l-1.087-5.5c-3.488-17.658-12.334-31.397-26.133-40.59-6.335-4.22-16.27-8.074-23.174-8.99L132 68.742V55.071c0-13.52-.568-16.071-3.578-16.071-.647 0-1.669.592-2.269 1.316m-3.25 59.736c-19.971 3.207-29.954 26.676-18.584 43.688 15.663 23.436 51.879 12.36 51.907-15.875.017-17.467-15.758-30.633-33.323-27.813" fill="#1976D2" fill-rule="evenodd"/><path fill-opacity=".157" d="M125.667 40.667c-.367.366-.667 6.8-.667 14.296v13.63l-7.151 1.226c-23.534 4.036-42.616 22.643-47.757 46.57l-1.743 8.111-13.924.5-13.925.5v5l13.93.5 13.93.5 1.636 7.684c2.169 10.193 7.649 21.01 14.358 28.343 4.531 4.952 5.694 5.749 6.806 4.664 1.115-1.09 1.064-1.204-.309-.682-.907.345-1.926.179-2.264-.369-.339-.548.277-1.279 1.368-1.626 2.754-.874 16.202-15.662 15.621-17.177-.294-.766.092-1.018 1.018-.663 1.775.682 1.189 1.491-8 11.049-3.29 3.422-5.782 6.399-5.538 6.615.911.807 15.437-16.029 15.441-17.895.001-1.069-1.47-3.723-3.27-5.899-8.446-10.212-7.984-25.858 1.068-36.142 6.036-6.857 12.54-9.793 21.705-9.795 7.873-.002 13.459 1.987 18.97 6.756 1.643 1.421 2.014 1.543 1.108.364-1.169-1.523-1.149-1.691.147-1.194 1.008.387 4.27-2.344 9.829-8.227 4.576-4.843 7.7-7.906 6.943-6.806-.758 1.1-4.079 4.8-7.381 8.223-3.302 3.422-5.804 6.393-5.56 6.601.244.208 3.72-3.16 7.723-7.484 6.293-6.797 7.135-8.132 6.215-9.851-.585-1.094-.768-1.989-.407-1.989.362 0 .157-.604-.456-1.342-.612-.738-.841-1.615-.508-1.948.333-.333-2.226-2.436-5.686-4.673-6.25-4.039-14.542-7.147-22.687-8.505l-4.25-.708v-12.83c0-7.057-.273-13.542-.607-14.412-.604-1.573-4.453-2.188-5.726-.915m40.202 43.675c.612.738.914 1.542.67 1.786s.417.443 1.47.443c1.773 0 1.795-.13.297-1.785-1.869-2.065-4.123-2.476-2.437-.444" fill="#1976D2" fill-rule="evenodd"/></svg>